<svg xmlns="http://www.w3.org/2000/svg" xmlns:xlink="http://www.w3.org/1999/xlink" width="1080" zoomAndPan="magnify" viewBox="0 0 810 809.999993" height="1080" preserveAspectRatio="xMidYMid meet" version="1.0"><defs><clipPath id="f705dfd402"><path d="M 369 370.070312 L 439.847656 370.070312 L 439.847656 440.859375 L 369 440.859375 Z M 369 370.070312 " clip-rule="nonzero"/></clipPath></defs><g clip-path="url(#f705dfd402)"><path fill="#f15757" d="M 404.167969 440.066406 C 423.453125 440.066406 439.078125 424.449219 439.078125 405.1875 C 439.078125 385.925781 423.453125 370.308594 404.167969 370.308594 C 384.886719 370.308594 369.257812 385.925781 369.257812 405.1875 C 369.257812 424.449219 384.886719 440.066406 404.167969 440.066406 Z M 415.0625 386.558594 C 415.589844 384.675781 413.761719 383.5625 412.09375 384.753906 L 388.796875 401.332031 C 386.984375 402.621094 387.269531 405.1875 389.222656 405.1875 L 395.359375 405.1875 L 395.359375 405.140625 L 407.3125 405.140625 L 397.570312 408.574219 L 393.277344 423.820312 C 392.746094 425.699219 394.574219 426.8125 396.246094 425.625 L 419.542969 409.046875 C 421.351562 407.757812 421.066406 405.1875 419.113281 405.1875 L 409.808594 405.1875 Z M 415.0625 386.558594 " fill-opacity="1" fill-rule="evenodd"/></g></svg>